<?xml version="1.0" encoding="UTF-8" standalone="no"?>
<!DOCTYPE svg PUBLIC "-//W3C//DTD SVG 1.1//EN"
 "http://www.w3.org/Graphics/SVG/1.1/DTD/svg11.dtd">
<!-- Generated by graphviz version 2.40.1 (20161225.0304)
 -->
<!-- Title: models_diagram Pages: 1 -->
<svg width="739pt" height="786pt"
 viewBox="0.00 0.00 738.72 786.13" xmlns="http://www.w3.org/2000/svg" xmlns:xlink="http://www.w3.org/1999/xlink">
<g id="graph0" class="graph" transform="scale(1 1) rotate(0) translate(36 750.1287)">
<title>models_diagram</title>
<polygon fill="#ffffff" stroke="transparent" points="-36,36 -36,-750.1287 702.7183,-750.1287 702.7183,36 -36,36"/>
<!-- accounts -->
<g id="node1" class="node">
<title>accounts</title>
<polygon fill="#add8e6" stroke="transparent" points="0,-176 0,-198 108,-198 108,-176 0,-176"/>
<polygon fill="none" stroke="#000000" points="0,-176 0,-198 108,-198 108,-176 0,-176"/>
<text text-anchor="start" x="36.5075" y="-185" font-family="Times,serif" font-weight="bold" font-size="10.00" fill="#000000">accounts</text>
<polygon fill="none" stroke="#000000" points="0,-154 0,-176 108,-176 108,-154 0,-154"/>
<text text-anchor="start" x="5" y="-163" font-family="Times,serif" text-decoration="underline" font-size="10.00" fill="#000000">id</text>
<text text-anchor="start" x="12.779" y="-163" font-family="Times,serif" font-size="10.00" fill="#000000">: NUMBER</text>
<polygon fill="none" stroke="#000000" points="0,-132 0,-154 108,-154 108,-132 0,-132"/>
<text text-anchor="start" x="5" y="-140" font-family="Times,serif" font-size="10.00" fill="#000000">active: BOOLEAN</text>
<polygon fill="none" stroke="#000000" points="0,-110 0,-132 108,-132 108,-110 0,-110"/>
<text text-anchor="start" x="5" y="-118" font-family="Times,serif" font-size="10.00" fill="#000000">name: STRING</text>
<polygon fill="none" stroke="#000000" points="0,-88 0,-110 108,-110 108,-88 0,-88"/>
<text text-anchor="start" x="5" y="-96" font-family="Times,serif" font-size="10.00" fill="#000000">email: STRING</text>
<polygon fill="none" stroke="#000000" points="0,-66 0,-88 108,-88 108,-66 0,-66"/>
<text text-anchor="start" x="4.706" y="-74" font-family="Times,serif" font-size="10.00" fill="#000000">phoneNumber: STRING</text>
<polygon fill="none" stroke="#000000" points="0,-44 0,-66 108,-66 108,-44 0,-44"/>
<text text-anchor="start" x="5" y="-52" font-family="Times,serif" font-size="10.00" fill="#000000">accountType: ENUM</text>
<polygon fill="none" stroke="#000000" points="0,-22 0,-44 108,-44 108,-22 0,-22"/>
<text text-anchor="start" x="5" y="-30" font-family="Times,serif" font-size="10.00" fill="#000000">createdAt: DATE</text>
<polygon fill="none" stroke="#000000" points="0,0 0,-22 108,-22 108,0 0,0"/>
<text text-anchor="start" x="5" y="-8" font-family="Times,serif" font-size="10.00" fill="#000000">updatedAt: DATE</text>
</g>
<!-- profiles -->
<g id="node2" class="node">
<title>profiles</title>
<polygon fill="#add8e6" stroke="transparent" points="5,-479.2575 5,-501.2575 104,-501.2575 104,-479.2575 5,-479.2575"/>
<polygon fill="none" stroke="#000000" points="5,-479.2575 5,-501.2575 104,-501.2575 104,-479.2575 5,-479.2575"/>
<text text-anchor="start" x="39.228" y="-488.2575" font-family="Times,serif" font-weight="bold" font-size="10.00" fill="#000000">profiles</text>
<polygon fill="none" stroke="#000000" points="5,-457.2575 5,-479.2575 104,-479.2575 104,-457.2575 5,-457.2575"/>
<text text-anchor="start" x="10" y="-466.2575" font-family="Times,serif" text-decoration="underline" font-size="10.00" fill="#000000">id</text>
<text text-anchor="start" x="17.779" y="-466.2575" font-family="Times,serif" font-size="10.00" fill="#000000">: NUMBER</text>
<polygon fill="none" stroke="#000000" points="5,-435.2575 5,-457.2575 104,-457.2575 104,-435.2575 5,-435.2575"/>
<text text-anchor="start" x="10" y="-443.2575" font-family="Times,serif" font-size="10.00" fill="#000000">active: BOOLEAN</text>
<polygon fill="none" stroke="#000000" points="5,-413.2575 5,-435.2575 104,-435.2575 104,-413.2575 5,-413.2575"/>
<text text-anchor="start" x="10" y="-421.2575" font-family="Times,serif" font-size="10.00" fill="#000000">name: STRING</text>
<polygon fill="none" stroke="#000000" points="5,-391.2575 5,-413.2575 104,-413.2575 104,-391.2575 5,-391.2575"/>
<text text-anchor="start" x="9.9225" y="-399.2575" font-family="Times,serif" font-size="10.00" fill="#000000">permissions: STRING</text>
<polygon fill="none" stroke="#000000" points="5,-369.2575 5,-391.2575 104,-391.2575 104,-369.2575 5,-369.2575"/>
<text text-anchor="start" x="10" y="-377.2575" font-family="Times,serif" font-size="10.00" fill="#000000">createdAt: DATE</text>
<polygon fill="none" stroke="#000000" points="5,-347.2575 5,-369.2575 104,-369.2575 104,-347.2575 5,-347.2575"/>
<text text-anchor="start" x="10" y="-355.2575" font-family="Times,serif" font-size="10.00" fill="#000000">updatedAt: DATE</text>
<polygon fill="none" stroke="#000000" points="5,-325.2575 5,-347.2575 104,-347.2575 104,-325.2575 5,-325.2575"/>
<text text-anchor="start" x="10" y="-334.2575" font-family="Times,serif" font-style="italic" text-decoration="underline" font-size="10.00" fill="#000000">accountId</text>
<text text-anchor="start" x="49.425" y="-334.2575" font-family="Times,serif" font-size="10.00" fill="#000000">: NUMBER</text>
</g>
<!-- profiles&#45;&gt;accounts -->
<g id="edge1" class="edge">
<title>profiles&#45;&gt;accounts</title>
<path fill="none" stroke="#000000" stroke-width=".75" d="M54,-318.8135C54,-280.6701 54,-236.6319 54,-198.0362"/>
<polygon fill="#000000" stroke="#000000" stroke-width=".75" points="53.9999,-318.8829 51.3,-324.883 54,-321.8829 54,-324.8829 54,-324.8829 54,-324.8829 54,-321.8829 56.7,-324.8829 53.9999,-318.8829 53.9999,-318.8829"/>
</g>
<!-- users -->
<g id="node3" class="node">
<title>users</title>
<polygon fill="#add8e6" stroke="transparent" points="262.155,-388.1287 262.155,-410.1287 390.155,-410.1287 390.155,-388.1287 262.155,-388.1287"/>
<polygon fill="none" stroke="#000000" points="262.155,-388.1287 262.155,-410.1287 390.155,-410.1287 390.155,-388.1287 262.155,-388.1287"/>
<text text-anchor="start" x="315.882" y="-397.1287" font-family="Times,serif" font-weight="bold" font-size="10.00" fill="#000000">users</text>
<polygon fill="none" stroke="#000000" points="262.155,-366.1287 262.155,-388.1287 390.155,-388.1287 390.155,-366.1287 262.155,-366.1287"/>
<text text-anchor="start" x="267.155" y="-375.1287" font-family="Times,serif" text-decoration="underline" font-size="10.00" fill="#000000">id</text>
<text text-anchor="start" x="274.934" y="-375.1287" font-family="Times,serif" font-size="10.00" fill="#000000">: NUMBER</text>
<polygon fill="none" stroke="#000000" points="262.155,-344.1287 262.155,-366.1287 390.155,-366.1287 390.155,-344.1287 262.155,-344.1287"/>
<text text-anchor="start" x="267.155" y="-352.1287" font-family="Times,serif" font-size="10.00" fill="#000000">active: BOOLEAN</text>
<polygon fill="none" stroke="#000000" points="262.155,-322.1287 262.155,-344.1287 390.155,-344.1287 390.155,-322.1287 262.155,-322.1287"/>
<text text-anchor="start" x="267.155" y="-330.1287" font-family="Times,serif" font-size="10.00" fill="#000000">name: STRING</text>
<polygon fill="none" stroke="#000000" points="262.155,-300.1287 262.155,-322.1287 390.155,-322.1287 390.155,-300.1287 262.155,-300.1287"/>
<text text-anchor="start" x="267.155" y="-308.1287" font-family="Times,serif" font-size="10.00" fill="#000000">username: STRING</text>
<polygon fill="none" stroke="#000000" points="262.155,-278.1287 262.155,-300.1287 390.155,-300.1287 390.155,-278.1287 262.155,-278.1287"/>
<text text-anchor="start" x="267.155" y="-286.1287" font-family="Times,serif" font-size="10.00" fill="#000000">email: STRING</text>
<polygon fill="none" stroke="#000000" points="262.155,-256.1287 262.155,-278.1287 390.155,-278.1287 390.155,-256.1287 262.155,-256.1287"/>
<text text-anchor="start" x="266.8635" y="-264.1287" font-family="Times,serif" font-size="10.00" fill="#000000">confirmationToken: STRING</text>
<polygon fill="none" stroke="#000000" points="262.155,-234.1287 262.155,-256.1287 390.155,-256.1287 390.155,-234.1287 262.155,-234.1287"/>
<text text-anchor="start" x="267.155" y="-242.1287" font-family="Times,serif" font-size="10.00" fill="#000000">avatar: STRING</text>
<polygon fill="none" stroke="#000000" points="262.155,-212.1287 262.155,-234.1287 390.155,-234.1287 390.155,-212.1287 262.155,-212.1287"/>
<text text-anchor="start" x="267.155" y="-220.1287" font-family="Times,serif" font-size="10.00" fill="#000000">password: STRING</text>
<polygon fill="none" stroke="#000000" points="262.155,-190.1287 262.155,-212.1287 390.155,-212.1287 390.155,-190.1287 262.155,-190.1287"/>
<text text-anchor="start" x="267.155" y="-198.1287" font-family="Times,serif" font-size="10.00" fill="#000000">lastAccess: JSON</text>
<polygon fill="none" stroke="#000000" points="262.155,-168.1287 262.155,-190.1287 390.155,-190.1287 390.155,-168.1287 262.155,-168.1287"/>
<text text-anchor="start" x="267.155" y="-176.1287" font-family="Times,serif" font-size="10.00" fill="#000000">createdAt: DATE</text>
<polygon fill="none" stroke="#000000" points="262.155,-146.1287 262.155,-168.1287 390.155,-168.1287 390.155,-146.1287 262.155,-146.1287"/>
<text text-anchor="start" x="267.155" y="-154.1287" font-family="Times,serif" font-size="10.00" fill="#000000">updatedAt: DATE</text>
<polygon fill="none" stroke="#000000" points="262.155,-124.1287 262.155,-146.1287 390.155,-146.1287 390.155,-124.1287 262.155,-124.1287"/>
<text text-anchor="start" x="267.155" y="-133.1287" font-family="Times,serif" font-style="italic" text-decoration="underline" font-size="10.00" fill="#000000">accountId</text>
<text text-anchor="start" x="306.58" y="-133.1287" font-family="Times,serif" font-size="10.00" fill="#000000">: NUMBER</text>
<polygon fill="none" stroke="#000000" points="262.155,-102.1287 262.155,-124.1287 390.155,-124.1287 390.155,-102.1287 262.155,-102.1287"/>
<text text-anchor="start" x="267.155" y="-111.1287" font-family="Times,serif" font-style="italic" text-decoration="underline" font-size="10.00" fill="#000000">profileId</text>
<text text-anchor="start" x="302.139" y="-111.1287" font-family="Times,serif" font-size="10.00" fill="#000000">: NUMBER</text>
</g>
<!-- users&#45;&gt;accounts -->
<g id="edge2" class="edge">
<title>users&#45;&gt;accounts</title>
<path fill="none" stroke="#000000" stroke-width=".75" d="M256.7249,-216.0433C210.5379,-189.3772 150.7481,-154.8575 108.0932,-130.2307"/>
<polygon fill="#000000" stroke="#000000" stroke-width=".75" points="256.8065,-216.0903 260.6526,-221.4287 259.4046,-217.5904 262.0027,-219.0904 262.0027,-219.0904 262.0027,-219.0904 259.4046,-217.5904 263.3527,-216.7521 256.8065,-216.0903 256.8065,-216.0903"/>
</g>
<!-- users&#45;&gt;profiles -->
<g id="edge3" class="edge">
<title>users&#45;&gt;profiles</title>
<path fill="none" stroke="#000000" stroke-width=".75" d="M256.5457,-296.3177C208.7724,-323.8996 146.5106,-359.8464 103.6973,-384.5647"/>
<polygon fill="#000000" stroke="#000000" stroke-width=".75" points="256.8065,-296.1671 263.3527,-295.5054 259.4046,-294.6671 262.0027,-293.1671 262.0027,-293.1671 262.0027,-293.1671 259.4046,-294.6671 260.6526,-290.8288 256.8065,-296.1671 256.8065,-296.1671"/>
</g>
<!-- acquirers -->
<g id="node4" class="node">
<title>acquirers</title>
<polygon fill="#add8e6" stroke="transparent" points="425.7183,-263.1287 425.7183,-285.1287 508.7183,-285.1287 508.7183,-263.1287 425.7183,-263.1287"/>
<polygon fill="none" stroke="#000000" points="425.7183,-263.1287 425.7183,-285.1287 508.7183,-285.1287 508.7183,-263.1287 425.7183,-263.1287"/>
<text text-anchor="start" x="448.8968" y="-272.1287" font-family="Times,serif" font-weight="bold" font-size="10.00" fill="#000000">acquirers</text>
<polygon fill="none" stroke="#000000" points="425.7183,-241.1287 425.7183,-263.1287 508.7183,-263.1287 508.7183,-241.1287 425.7183,-241.1287"/>
<text text-anchor="start" x="430.7183" y="-250.1287" font-family="Times,serif" text-decoration="underline" font-size="10.00" fill="#000000">id</text>
<text text-anchor="start" x="438.4973" y="-250.1287" font-family="Times,serif" font-size="10.00" fill="#000000">: STRING</text>
<polygon fill="none" stroke="#000000" points="425.7183,-219.1287 425.7183,-241.1287 508.7183,-241.1287 508.7183,-219.1287 425.7183,-219.1287"/>
<text text-anchor="start" x="430.7183" y="-227.1287" font-family="Times,serif" font-size="10.00" fill="#000000">name: STRING</text>
<polygon fill="none" stroke="#000000" points="425.7183,-197.1287 425.7183,-219.1287 508.7183,-219.1287 508.7183,-197.1287 425.7183,-197.1287"/>
<text text-anchor="start" x="430.7183" y="-205.1287" font-family="Times,serif" font-size="10.00" fill="#000000">createdAt: DATE</text>
<polygon fill="none" stroke="#000000" points="425.7183,-175.1287 425.7183,-197.1287 508.7183,-197.1287 508.7183,-175.1287 425.7183,-175.1287"/>
<text text-anchor="start" x="430.4233" y="-183.1287" font-family="Times,serif" font-size="10.00" fill="#000000">updatedAt: DATE</text>
</g>
<!-- banks -->
<g id="node5" class="node">
<title>banks</title>
<polygon fill="#add8e6" stroke="transparent" points="50.7183,-660.1287 50.7183,-682.1287 133.7183,-682.1287 133.7183,-660.1287 50.7183,-660.1287"/>
<polygon fill="none" stroke="#000000" points="50.7183,-660.1287 50.7183,-682.1287 133.7183,-682.1287 133.7183,-660.1287 50.7183,-660.1287"/>
<text text-anchor="start" x="80.5543" y="-669.1287" font-family="Times,serif" font-weight="bold" font-size="10.00" fill="#000000">banks</text>
<polygon fill="none" stroke="#000000" points="50.7183,-638.1287 50.7183,-660.1287 133.7183,-660.1287 133.7183,-638.1287 50.7183,-638.1287"/>
<text text-anchor="start" x="55.7183" y="-647.1287" font-family="Times,serif" text-decoration="underline" font-size="10.00" fill="#000000">id</text>
<text text-anchor="start" x="63.4973" y="-647.1287" font-family="Times,serif" font-size="10.00" fill="#000000">: STRING</text>
<polygon fill="none" stroke="#000000" points="50.7183,-616.1287 50.7183,-638.1287 133.7183,-638.1287 133.7183,-616.1287 50.7183,-616.1287"/>
<text text-anchor="start" x="55.7183" y="-624.1287" font-family="Times,serif" font-size="10.00" fill="#000000">name: STRING</text>
<polygon fill="none" stroke="#000000" points="50.7183,-594.1287 50.7183,-616.1287 133.7183,-616.1287 133.7183,-594.1287 50.7183,-594.1287"/>
<text text-anchor="start" x="55.7183" y="-602.1287" font-family="Times,serif" font-size="10.00" fill="#000000">ispb: STRING</text>
<polygon fill="none" stroke="#000000" points="50.7183,-572.1287 50.7183,-594.1287 133.7183,-594.1287 133.7183,-572.1287 50.7183,-572.1287"/>
<text text-anchor="start" x="55.7183" y="-580.1287" font-family="Times,serif" font-size="10.00" fill="#000000">createdAt: DATE</text>
<polygon fill="none" stroke="#000000" points="50.7183,-550.1287 50.7183,-572.1287 133.7183,-572.1287 133.7183,-550.1287 50.7183,-550.1287"/>
<text text-anchor="start" x="55.4233" y="-558.1287" font-family="Times,serif" font-size="10.00" fill="#000000">updatedAt: DATE</text>
</g>
<!-- bpGroups -->
<g id="node6" class="node">
<title>bpGroups</title>
<polygon fill="#add8e6" stroke="transparent" points="324.7183,-529.1287 324.7183,-551.1287 416.7183,-551.1287 416.7183,-529.1287 324.7183,-529.1287"/>
<polygon fill="none" stroke="#000000" points="324.7183,-529.1287 324.7183,-551.1287 416.7183,-551.1287 416.7183,-529.1287 324.7183,-529.1287"/>
<text text-anchor="start" x="350.9998" y="-538.1287" font-family="Times,serif" font-weight="bold" font-size="10.00" fill="#000000">bpGroups</text>
<polygon fill="none" stroke="#000000" points="324.7183,-507.1287 324.7183,-529.1287 416.7183,-529.1287 416.7183,-507.1287 324.7183,-507.1287"/>
<text text-anchor="start" x="329.4733" y="-516.1287" font-family="Times,serif" text-decoration="underline" font-size="10.00" fill="#000000">grpCode</text>
<text text-anchor="start" x="363.9103" y="-516.1287" font-family="Times,serif" font-size="10.00" fill="#000000">: NUMBER</text>
<polygon fill="none" stroke="#000000" points="324.7183,-485.1287 324.7183,-507.1287 416.7183,-507.1287 416.7183,-485.1287 324.7183,-485.1287"/>
<text text-anchor="start" x="329.7183" y="-493.1287" font-family="Times,serif" font-size="10.00" fill="#000000">grpName: STRING</text>
<polygon fill="none" stroke="#000000" points="324.7183,-463.1287 324.7183,-485.1287 416.7183,-485.1287 416.7183,-463.1287 324.7183,-463.1287"/>
<text text-anchor="start" x="329.7183" y="-471.1287" font-family="Times,serif" font-size="10.00" fill="#000000">createdAt: DATE</text>
<polygon fill="none" stroke="#000000" points="324.7183,-441.1287 324.7183,-463.1287 416.7183,-463.1287 416.7183,-441.1287 324.7183,-441.1287"/>
<text text-anchor="start" x="329.7183" y="-449.1287" font-family="Times,serif" font-size="10.00" fill="#000000">updatedAt: DATE</text>
</g>
<!-- costingCenters -->
<g id="node7" class="node">
<title>costingCenters</title>
<polygon fill="#add8e6" stroke="transparent" points="149.7183,-113.1287 149.7183,-135.1287 237.7183,-135.1287 237.7183,-113.1287 149.7183,-113.1287"/>
<polygon fill="none" stroke="#000000" points="149.7183,-113.1287 149.7183,-135.1287 237.7183,-135.1287 237.7183,-113.1287 149.7183,-113.1287"/>
<text text-anchor="start" x="164.0033" y="-122.1287" font-family="Times,serif" font-weight="bold" font-size="10.00" fill="#000000">costingCenters</text>
<polygon fill="none" stroke="#000000" points="149.7183,-91.1287 149.7183,-113.1287 237.7183,-113.1287 237.7183,-91.1287 149.7183,-91.1287"/>
<text text-anchor="start" x="154.7183" y="-100.1287" font-family="Times,serif" text-decoration="underline" font-size="10.00" fill="#000000">ocrCode</text>
<text text-anchor="start" x="188.5943" y="-100.1287" font-family="Times,serif" font-size="10.00" fill="#000000">: STRING</text>
<polygon fill="none" stroke="#000000" points="149.7183,-69.1287 149.7183,-91.1287 237.7183,-91.1287 237.7183,-69.1287 149.7183,-69.1287"/>
<text text-anchor="start" x="154.7048" y="-77.1287" font-family="Times,serif" font-size="10.00" fill="#000000">ocrName: STRING</text>
<polygon fill="none" stroke="#000000" points="149.7183,-47.1287 149.7183,-69.1287 237.7183,-69.1287 237.7183,-47.1287 149.7183,-47.1287"/>
<text text-anchor="start" x="154.7183" y="-55.1287" font-family="Times,serif" font-size="10.00" fill="#000000">createdAt: DATE</text>
<polygon fill="none" stroke="#000000" points="149.7183,-25.1287 149.7183,-47.1287 237.7183,-47.1287 237.7183,-25.1287 149.7183,-25.1287"/>
<text text-anchor="start" x="154.7183" y="-33.1287" font-family="Times,serif" font-size="10.00" fill="#000000">updatedAt: DATE</text>
</g>
<!-- projects -->
<g id="node8" class="node">
<title>projects</title>
<polygon fill="#add8e6" stroke="transparent" points="424.7183,-113.1287 424.7183,-135.1287 510.7183,-135.1287 510.7183,-113.1287 424.7183,-113.1287"/>
<polygon fill="none" stroke="#000000" points="424.7183,-113.1287 424.7183,-135.1287 510.7183,-135.1287 510.7183,-113.1287 424.7183,-113.1287"/>
<text text-anchor="start" x="451.8913" y="-122.1287" font-family="Times,serif" font-weight="bold" font-size="10.00" fill="#000000">projects</text>
<polygon fill="none" stroke="#000000" points="424.7183,-91.1287 424.7183,-113.1287 510.7183,-113.1287 510.7183,-91.1287 424.7183,-91.1287"/>
<text text-anchor="start" x="429.7183" y="-100.1287" font-family="Times,serif" text-decoration="underline" font-size="10.00" fill="#000000">prjCode</text>
<text text-anchor="start" x="461.9343" y="-100.1287" font-family="Times,serif" font-size="10.00" fill="#000000">: STRING</text>
<polygon fill="none" stroke="#000000" points="424.7183,-69.1287 424.7183,-91.1287 510.7183,-91.1287 510.7183,-69.1287 424.7183,-69.1287"/>
<text text-anchor="start" x="429.5348" y="-77.1287" font-family="Times,serif" font-size="10.00" fill="#000000">prjName: STRING</text>
<polygon fill="none" stroke="#000000" points="424.7183,-47.1287 424.7183,-69.1287 510.7183,-69.1287 510.7183,-47.1287 424.7183,-47.1287"/>
<text text-anchor="start" x="429.7183" y="-55.1287" font-family="Times,serif" font-size="10.00" fill="#000000">createdAt: DATE</text>
<polygon fill="none" stroke="#000000" points="424.7183,-25.1287 424.7183,-47.1287 510.7183,-47.1287 510.7183,-25.1287 424.7183,-25.1287"/>
<text text-anchor="start" x="429.7183" y="-33.1287" font-family="Times,serif" font-size="10.00" fill="#000000">updatedAt: DATE</text>
</g>
<!-- chartOfAccounts -->
<g id="node9" class="node">
<title>chartOfAccounts</title>
<polygon fill="#add8e6" stroke="transparent" points="174.7183,-692.1287 174.7183,-714.1287 286.7183,-714.1287 286.7183,-692.1287 174.7183,-692.1287"/>
<polygon fill="none" stroke="#000000" points="174.7183,-692.1287 174.7183,-714.1287 286.7183,-714.1287 286.7183,-692.1287 174.7183,-692.1287"/>
<text text-anchor="start" x="196.5688" y="-701.1287" font-family="Times,serif" font-weight="bold" font-size="10.00" fill="#000000">chartOfAccounts</text>
<polygon fill="none" stroke="#000000" points="174.7183,-670.1287 174.7183,-692.1287 286.7183,-692.1287 286.7183,-670.1287 174.7183,-670.1287"/>
<text text-anchor="start" x="179.7183" y="-679.1287" font-family="Times,serif" text-decoration="underline" font-size="10.00" fill="#000000">acctCode</text>
<text text-anchor="start" x="216.9223" y="-679.1287" font-family="Times,serif" font-size="10.00" fill="#000000">: STRING</text>
<polygon fill="none" stroke="#000000" points="174.7183,-648.1287 174.7183,-670.1287 286.7183,-670.1287 286.7183,-648.1287 174.7183,-648.1287"/>
<text text-anchor="start" x="179.7183" y="-656.1287" font-family="Times,serif" font-size="10.00" fill="#000000">acctName: STRING</text>
<polygon fill="none" stroke="#000000" points="174.7183,-626.1287 174.7183,-648.1287 286.7183,-648.1287 286.7183,-626.1287 174.7183,-626.1287"/>
<text text-anchor="start" x="179.7183" y="-634.1287" font-family="Times,serif" font-size="10.00" fill="#000000">accountType: STRING</text>
<polygon fill="none" stroke="#000000" points="174.7183,-604.1287 174.7183,-626.1287 286.7183,-626.1287 286.7183,-604.1287 174.7183,-604.1287"/>
<text text-anchor="start" x="179.4818" y="-612.1287" font-family="Times,serif" font-size="10.00" fill="#000000">titleAccount: BOOLEAN</text>
<polygon fill="none" stroke="#000000" points="174.7183,-582.1287 174.7183,-604.1287 286.7183,-604.1287 286.7183,-582.1287 174.7183,-582.1287"/>
<text text-anchor="start" x="179.7183" y="-590.1287" font-family="Times,serif" font-size="10.00" fill="#000000">lockManual: BOOLEAN</text>
<polygon fill="none" stroke="#000000" points="174.7183,-560.1287 174.7183,-582.1287 286.7183,-582.1287 286.7183,-560.1287 174.7183,-560.1287"/>
<text text-anchor="start" x="179.7183" y="-568.1287" font-family="Times,serif" font-size="10.00" fill="#000000">level: NUMBER</text>
<polygon fill="none" stroke="#000000" points="174.7183,-538.1287 174.7183,-560.1287 286.7183,-560.1287 286.7183,-538.1287 174.7183,-538.1287"/>
<text text-anchor="start" x="179.7183" y="-546.1287" font-family="Times,serif" font-size="10.00" fill="#000000">group: NUMBER</text>
<polygon fill="none" stroke="#000000" points="174.7183,-516.1287 174.7183,-538.1287 286.7183,-538.1287 286.7183,-516.1287 174.7183,-516.1287"/>
<text text-anchor="start" x="179.7183" y="-524.1287" font-family="Times,serif" font-size="10.00" fill="#000000">grpLine: NUMBER</text>
<polygon fill="none" stroke="#000000" points="174.7183,-494.1287 174.7183,-516.1287 286.7183,-516.1287 286.7183,-494.1287 174.7183,-494.1287"/>
<text text-anchor="start" x="179.7183" y="-502.1287" font-family="Times,serif" font-size="10.00" fill="#000000">lastDate: STRING</text>
<polygon fill="none" stroke="#000000" points="174.7183,-472.1287 174.7183,-494.1287 286.7183,-494.1287 286.7183,-472.1287 174.7183,-472.1287"/>
<text text-anchor="start" x="179.7183" y="-480.1287" font-family="Times,serif" font-size="10.00" fill="#000000">createdAt: DATE</text>
<polygon fill="none" stroke="#000000" points="174.7183,-450.1287 174.7183,-472.1287 286.7183,-472.1287 286.7183,-450.1287 174.7183,-450.1287"/>
<text text-anchor="start" x="179.7183" y="-458.1287" font-family="Times,serif" font-size="10.00" fill="#000000">updatedAt: DATE</text>
</g>
<!-- businessPartners -->
<g id="node10" class="node">
<title>businessPartners</title>
<polygon fill="#add8e6" stroke="transparent" points="570.7183,-595.1287 570.7183,-617.1287 666.7183,-617.1287 666.7183,-595.1287 570.7183,-595.1287"/>
<polygon fill="none" stroke="#000000" points="570.7183,-595.1287 570.7183,-617.1287 666.7183,-617.1287 666.7183,-595.1287 570.7183,-595.1287"/>
<text text-anchor="start" x="585.3943" y="-604.1287" font-family="Times,serif" font-weight="bold" font-size="10.00" fill="#000000">businessPartners</text>
<polygon fill="none" stroke="#000000" points="570.7183,-573.1287 570.7183,-595.1287 666.7183,-595.1287 666.7183,-573.1287 570.7183,-573.1287"/>
<text text-anchor="start" x="575.7183" y="-582.1287" font-family="Times,serif" text-decoration="underline" font-size="10.00" fill="#000000">cardCode</text>
<text text-anchor="start" x="614.0333" y="-582.1287" font-family="Times,serif" font-size="10.00" fill="#000000">: STRING</text>
<polygon fill="none" stroke="#000000" points="570.7183,-551.1287 570.7183,-573.1287 666.7183,-573.1287 666.7183,-551.1287 570.7183,-551.1287"/>
<text text-anchor="start" x="575.7183" y="-559.1287" font-family="Times,serif" font-size="10.00" fill="#000000">cardName: STRING</text>
<polygon fill="none" stroke="#000000" points="570.7183,-529.1287 570.7183,-551.1287 666.7183,-551.1287 666.7183,-529.1287 570.7183,-529.1287"/>
<text text-anchor="start" x="575.7183" y="-537.1287" font-family="Times,serif" font-size="10.00" fill="#000000">tradeName: STRING</text>
<polygon fill="none" stroke="#000000" points="570.7183,-507.1287 570.7183,-529.1287 666.7183,-529.1287 666.7183,-507.1287 570.7183,-507.1287"/>
<text text-anchor="start" x="575.7183" y="-515.1287" font-family="Times,serif" font-size="10.00" fill="#000000">type: STRING</text>
<polygon fill="none" stroke="#000000" points="570.7183,-485.1287 570.7183,-507.1287 666.7183,-507.1287 666.7183,-485.1287 570.7183,-485.1287"/>
<text text-anchor="start" x="575.5348" y="-493.1287" font-family="Times,serif" font-size="10.00" fill="#000000">vatNumber: STRING</text>
<polygon fill="none" stroke="#000000" points="570.7183,-463.1287 570.7183,-485.1287 666.7183,-485.1287 666.7183,-463.1287 570.7183,-463.1287"/>
<text text-anchor="start" x="575.7183" y="-472.1287" font-family="Times,serif" font-style="italic" text-decoration="underline" font-size="10.00" fill="#000000">grpCode</text>
<text text-anchor="start" x="610.1553" y="-472.1287" font-family="Times,serif" font-size="10.00" fill="#000000">: NUMBER</text>
<polygon fill="none" stroke="#000000" points="570.7183,-441.1287 570.7183,-463.1287 666.7183,-463.1287 666.7183,-441.1287 570.7183,-441.1287"/>
<text text-anchor="start" x="575.7183" y="-449.1287" font-family="Times,serif" font-size="10.00" fill="#000000">account: STRING</text>
<polygon fill="none" stroke="#000000" points="570.7183,-419.1287 570.7183,-441.1287 666.7183,-441.1287 666.7183,-419.1287 570.7183,-419.1287"/>
<text text-anchor="start" x="575.7183" y="-427.1287" font-family="Times,serif" font-size="10.00" fill="#000000">lastDate: STRING</text>
<polygon fill="none" stroke="#000000" points="570.7183,-397.1287 570.7183,-419.1287 666.7183,-419.1287 666.7183,-397.1287 570.7183,-397.1287"/>
<text text-anchor="start" x="575.7183" y="-405.1287" font-family="Times,serif" font-size="10.00" fill="#000000">createdAt: DATE</text>
<polygon fill="none" stroke="#000000" points="570.7183,-375.1287 570.7183,-397.1287 666.7183,-397.1287 666.7183,-375.1287 570.7183,-375.1287"/>
<text text-anchor="start" x="575.7183" y="-383.1287" font-family="Times,serif" font-size="10.00" fill="#000000">updatedAt: DATE</text>
</g>
<!-- businessPartners&#45;&gt;bpGroups -->
<g id="edge4" class="edge">
<title>businessPartners&#45;&gt;bpGroups</title>
<path fill="none" stroke="#000000" stroke-width=".75" d="M564.5041,-496.1287C520.4016,-496.1287 458.8352,-496.1287 417.017,-496.1287"/>
<polygon fill="#000000" stroke="#000000" stroke-width=".75" points="564.6074,-496.1288 570.6074,-498.8287 567.6074,-496.1288 570.6074,-496.1287 570.6074,-496.1287 570.6074,-496.1287 567.6074,-496.1288 570.6073,-493.4287 564.6074,-496.1288 564.6074,-496.1288"/>
</g>
</g>
</svg>
